<?xml version="1.0" encoding="UTF-8"?>
<svg width="32px" height="32px" viewBox="0 0 32 32" version="1.1" xmlns="http://www.w3.org/2000/svg" xmlns:xlink="http://www.w3.org/1999/xlink">
    <!-- Generator: Sketch 46.2 (44496) - http://www.bohemiancoding.com/sketch -->
    <title>dc_logo</title>
    <desc>Created with Sketch.</desc>
    <defs></defs>
    <g id="promo" stroke="none" stroke-width="1" fill="none" fill-rule="evenodd" opacity="0.400000006">
        <g id="dc_logo" fill-rule="nonzero" fill="#FFFFFF">
            <path d="M15.9999644,0 C7.1634368,0 0,7.16342884 0,16.0000178 C0,24.8366067 7.1634368,32 15.9999644,32 C24.8365632,32 32,24.8365712 32,16.0000178 C32,7.16346439 24.8365632,0 15.9999644,0 Z M1.1770258,16.0000178 C1.1770258,14.2811404 1.4659764,12.6070205 2.03747861,11.0116082 L3.57651032,12.0805963 L3.57651032,24.0916212 C3.09807808,23.3585805 2.68573333,22.5829153 2.34139578,21.7692117 C1.56907148,19.9425112 1.1770258,18.0015175 1.1770258,16.0000178 Z M26.4814273,26.481469 C25.1198258,27.8429979 23.5344724,28.911986 21.7695203,29.6585713 C19.9428178,30.4312858 18.0017864,30.82294 16,30.82294 C13.9985691,30.82294 12.0575022,30.4312858 10.2308708,29.6585713 C8.46559868,28.911986 6.88049415,27.8429979 5.51864377,26.481469 C5.08923501,26.0517052 4.68890617,25.6000071 4.31858155,25.1272278 L12.5102673,25.1272278 L15.7361833,22.7918071 L15.7361833,10.0803763 L12.5102673,7.67822819 L3.73001533,7.67822819 C4.25348946,6.90825104 4.85104984,6.18658632 5.51864377,5.51867319 C6.88049415,4.15678877 8.46559868,3.08783624 10.2308708,2.34146428 C12.0575022,1.56874978 13.9985691,1.17709559 16,1.17709559 C18.0017864,1.17709559 19.9428533,1.56874978 21.7695203,2.34146428 C23.5344369,3.08783624 25.1198258,4.15678877 26.4814273,5.51867319 C27.1493412,6.18655077 27.7465105,6.90825104 28.2700202,7.67822819 L25.9279134,7.67822819 L25.4017731,8.83996618 L23.8379985,7.67822819 L20.1998089,7.67822819 L16.9971782,10.0803763 L16.9971782,22.7918071 L20.1847713,25.1272278 L27.681845,25.1272278 C27.3115204,25.6000071 26.9110849,26.0517052 26.4814273,26.481469 Z M6.84711267,11.672198 L9.77675473,11.672198 C10.5964672,11.672198 11.2607194,12.336414 11.2607194,13.1561255 L11.2607194,19.725052 C11.2607194,20.5444791 10.5964672,21.2089439 9.77675473,21.2089439 L8.01916146,21.2089439 L8.01916146,12.5215938 L6.84711267,11.672198 Z M28.8144689,23.4573384 L28.8144689,18.9279502 L24.6684116,18.9279502 L24.6684116,21.2089439 L22.8775435,21.2089439 C22.0941276,21.2089439 21.4592397,20.5741278 21.4592397,19.7907483 L21.4592397,12.5232647 L20.2864799,11.672198 L24.6684116,11.672198 L24.6684116,14.1620124 L28.4688515,14.1620124 L29.2248228,9.296428 C29.3796432,9.60166018 29.5245095,9.91329136 29.6585331,10.2305039 C30.4312485,12.0571688 30.8230098,13.9981981 30.8230098,15.9999822 C30.8230098,18.001482 30.4312485,19.9424757 29.6585331,21.7691762 C29.4120292,22.3520537 29.1304019,22.9152366 28.8144689,23.4573384 Z" id="Shape"></path>
        </g>
    </g>
</svg>