<?xml version="1.0" encoding="UTF-8"?>
<svg width="57px" height="53px" viewBox="0 0 57 53" version="1.1" xmlns="http://www.w3.org/2000/svg" xmlns:xlink="http://www.w3.org/1999/xlink">
    <!-- Generator: Sketch 46.2 (44496) - http://www.bohemiancoding.com/sketch -->
    <title>ic_car</title>
    <desc>Created with Sketch.</desc>
    <defs></defs>
    <g id="promo" stroke="none" stroke-width="1" fill="none" fill-rule="evenodd">
        <g id="ic_car" transform="translate(-4.000000, -5.000000)" fill-rule="nonzero" fill="#F5A21D">
            <path d="M25,10 L25,9 C25,6.790861 26.790861,5 29,5 L35,5 C37.209139,5 39,6.790861 39,9 L39,10 L41.8086608,10 C46.0129322,10 49.7682197,12.6297002 51.2058553,16.5805357 L56.6246833,31.4722779 C59.2897362,33.5784169 61,36.8394817 61,40.5 C61,45.6308757 57.6398324,49.9769422 53,51.4576969 L53,52 C53,55.3137085 50.3137085,58 47,58 C43.6862915,58 41,55.3137085 41,52 L24,52 C24,55.3137085 21.3137085,58 18,58 C14.6862915,58 12,55.3137085 12,52 L12,51.4576969 C7.36016755,49.9769422 4,45.6308757 4,40.5 C4,37.5990254 5.07415216,34.9489324 6.84642381,32.9257538 L12.7941447,16.5805357 C14.2317803,12.6297002 17.9870678,10 22.1913392,10 L25,10 Z M54.0966391,33.2981419 L48.386697,17.606375 C47.3803521,14.8407901 44.7516508,13 41.8086608,13 L22.1913392,13 C19.2483492,13 16.6196479,14.8407901 15.613303,17.606375 L9.47339465,34.4797528 L9.10305335,34.9025247 C7.75397325,36.442599 7,38.4088606 7,40.5 C7,45.1944204 10.8055796,49 15.5,49 L49.5,49 C54.1944204,49 58,45.1944204 58,40.5 C58,37.8632685 56.7955094,35.4310061 54.7645827,33.8260038 L54.0966391,33.2981419 Z M15,52 C15,53.6568542 16.3431458,55 18,55 C19.6568542,55 21,53.6568542 21,52 L15,52 Z M44,52 C44,53.6568542 45.3431458,55 47,55 C48.6568542,55 50,53.6568542 50,52 L44,52 Z M28,10 L36,10 L36,9 C36,8.44771525 35.5522847,8 35,8 L29,8 C28.4477153,8 28,8.44771525 28,9 L28,10 Z M48.1382014,25.1475761 C48.6968159,27.090036 48.9840821,28.0408439 49,28 C49.2027444,29.7735154 47.8366702,31.1708924 45.90625,31 C42.1735659,32.3333333 37.7048159,33 32.5,33 C27.2951841,33 22.8264341,32.3333333 19.09375,31 C17.1633298,31.1708924 15.7972556,29.7735154 16,28 L19.09375,17 C19.4469934,15.9109573 20.8919268,15 22.1875,15 L42.8125,15 C44.1080732,15 45.5530066,15.9109573 45.90625,17 C46.5908204,19.529996 47.1618416,21.6236787 47.6193134,23.2810481 L48.1382014,25.1475761 Z M45.303978,26.1510986 C44.8009095,24.3624104 44.0672683,21.6872851 43.1020789,18.1223359 C42.9752218,18.0412263 42.8451361,18 42.8125,18 L22.1875,18 C22.1548639,18 22.0247782,18.0412263 21.9068588,18.1168558 C21.9033681,18.1190947 20.974534,21.4087801 19.1203566,27.9859123 L19.4839326,27.9537263 L20.1029148,28.1748299 C23.4866351,29.3835116 27.6190341,30 32.5,30 C37.3809659,30 41.5133649,29.3835116 44.8970852,28.1748299 L45.5160674,27.9537263 L45.8292854,27.9814543 C45.6950998,27.5294763 45.5204686,26.9208429 45.303978,26.1510986 Z M15.1727559,37.2244246 L17.7485581,37.9146087 C19.6453264,38.4228463 20.7709531,40.3724888 20.2627155,42.2692571 C19.754478,44.1660255 17.8048355,45.2916521 15.9080671,44.7834146 L13.3322649,44.0932305 C11.4354965,43.5849929 10.3098699,41.6353504 10.8181074,39.738582 C11.326345,37.8418137 13.2759875,36.716187 15.1727559,37.2244246 Z M48.796956,36.9943632 C50.6937243,36.4861257 52.6433669,37.6117523 53.1516044,39.5085206 C53.659842,41.405289 52.5342153,43.3549315 50.637447,43.8631691 L48.0616448,44.5533532 C46.1648764,45.0615908 44.2152339,43.9359641 43.7069963,42.0391958 C43.1987588,40.1424274 44.3243854,38.1927849 46.2211538,37.6845473 L48.796956,36.9943632 Z M13.7158849,40.5150392 C13.6364728,40.8114092 13.812352,41.1160409 14.108722,41.195453 L16.6845242,41.8856371 C16.9808943,41.9650492 17.2855259,41.7891701 17.364938,41.4928 C17.4443502,41.1964299 17.268471,40.8917983 16.9721009,40.8123862 L14.3962987,40.1222021 C14.0999287,40.0427899 13.795297,40.2186691 13.7158849,40.5150392 Z M46.6047738,41.2627386 C46.6841859,41.5591087 46.9888176,41.7349878 47.2851876,41.6555757 L49.8609898,40.9653916 C50.1573599,40.8859795 50.333239,40.5813478 50.2538269,40.2849778 C50.1744148,39.9886077 49.8697832,39.8127286 49.5734131,39.8921407 L46.9976109,40.5823248 C46.7012408,40.6617369 46.5253617,40.9663686 46.6047738,41.2627386 Z" id="Combined-Shape"></path>
        </g>
    </g>
</svg>