<?xml version="1.0" encoding="UTF-8"?>
<svg width="60px" height="57px" viewBox="0 0 60 57" version="1.1" xmlns="http://www.w3.org/2000/svg" xmlns:xlink="http://www.w3.org/1999/xlink">
    <!-- Generator: Sketch 46.2 (44496) - http://www.bohemiancoding.com/sketch -->
    <title>ic_hotel</title>
    <desc>Created with Sketch.</desc>
    <defs>
        <rect id="path-1" x="0" y="0" width="64" height="64"></rect>
    </defs>
    <g id="promo" stroke="none" stroke-width="1" fill="none" fill-rule="evenodd">
        <g id="ic_hotel" transform="translate(-2.000000, -3.000000)">
            <mask id="mask-2" fill="white">
                <use xlink:href="#path-1"></use>
            </mask>
            <g id="Rectangle-2"></g>
            <path d="M58,51 L59,51 C60.6568542,51 62,52.3431458 62,54 L62,57 C62,58.6568542 60.6568542,60 59,60 L5,60 C3.34314575,60 2,58.6568542 2,57 L2,54 C2,52.3431458 3.34314575,51 5,51 L5,23 C5,20.2385763 7.23857625,18 10,18 L12,18 L12,8 C12,5.23857625 14.2385763,3 17,3 L53,3 C55.7614237,3 58,5.23857625 58,8 L58,51 Z M31,42 L27,42 C26.4477153,42 26,42.4477153 26,43 L26,51 L39,51 L39,43 C39,42.4477153 38.5522847,42 38,42 L34,42 L34,51 L31,51 L31,42 Z M42,51 L55,51 L55,8 C55,6.8954305 54.1045695,6 53,6 L17,6 C15.8954305,6 15,6.8954305 15,8 L15,21 L10,21 C8.8954305,21 8,21.8954305 8,23 L8,51 L23,51 L23,43 C23,40.790861 24.790861,39 27,39 L38,39 C40.209139,39 42,40.790861 42,43 L42,51 Z M23,24 L44,24 C45.1045695,24 46,24.8954305 46,26 L46,29 C46,30.1045695 45.1045695,31 44,31 L23,31 C21.8954305,31 21,30.1045695 21,29 L21,26 C21,24.8954305 21.8954305,24 23,24 Z M24,28 L43,28 L43,27 L24,27 L24,28 Z M5,54 L5,57 L59,57 L59,54 L5,54 Z M23,13 L49,13 C50.1045695,13 51,13.8954305 51,15 L51,18 C51,19.1045695 50.1045695,20 49,20 L23,20 C21.8954305,20 21,19.1045695 21,18 L21,15 C21,13.8954305 21.8954305,13 23,13 Z M24,17 L48,17 L48,16 L24,16 L24,17 Z" id="Combined-Shape" fill="#F5A21D" fill-rule="nonzero" mask="url(#mask-2)"></path>
        </g>
    </g>
</svg>