<?xml version="1.0" encoding="UTF-8"?>
<svg width="51px" height="54px" viewBox="0 0 51 54" version="1.1" xmlns="http://www.w3.org/2000/svg" xmlns:xlink="http://www.w3.org/1999/xlink">
    <!-- Generator: Sketch 46.2 (44496) - http://www.bohemiancoding.com/sketch -->
    <title>ic_lotus</title>
    <desc>Created with Sketch.</desc>
    <defs></defs>
    <g id="promo" stroke="none" stroke-width="1" fill="none" fill-rule="evenodd">
        <g id="ic_lotus" transform="translate(-6.000000, -5.000000)" fill-rule="nonzero" fill="#F5A21D">
            <g id="Group-4" transform="translate(6.222222, 5.333333)">
                <path d="M19.8007663,32.6101892 L24.3394895,28.297875 C24.6279041,28.0200611 25.0018654,27.8797178 25.3767046,27.8790111 C25.7567553,27.8797178 26.1307166,28.0200611 26.4191312,28.297875 L31.3563218,32.9887795 L36.3001428,28.2915754 C36.4782004,28.1224 36.6869231,28.0055162 36.9073469,27.9404392 C36.404705,22.1200048 33.8394703,16.951474 28.7859767,9.99488291 C28.1610706,9.13464307 26.0132358,6.23916418 25.6656215,5.76415672 C25.5496539,5.60568947 25.4366846,5.45071902 25.3265224,5.29894354 C25.217862,5.4472136 25.1065366,5.59841908 24.992372,5.75283603 C24.5770193,6.3146343 22.463216,9.1289493 21.8697748,9.93537319 C16.7892568,16.8392602 14.2384626,21.9772935 13.7530128,27.953979 C14.2605409,27.7873617 14.8410215,27.8978556 15.2554128,28.2915754 L19.8007663,32.6101892 Z M20.8405871,35.7604128 C20.5521726,36.0382267 20.1782112,36.17857 19.803372,36.1792767 C19.4233214,36.17857 19.04936,36.0382267 18.7609454,35.7604128 L13.6817528,30.93459 C13.9479407,37.9983616 17.7398194,44.2034934 25.3056785,49.6689134 C32.5670922,44.2691981 36.3686025,38.3511123 36.927587,31.8336048 L32.7879798,35.7667124 C32.3927214,36.1422538 31.8463564,36.2601192 31.3563218,36.1256146 C30.8662873,36.2601192 30.3199223,36.1422538 29.9246638,35.7667124 L25.3793103,31.4480986 L20.8405871,35.7604128 Z M17.913111,10.30069 C20.5183813,6.5690585 23.3101475,3.22766219 25.3333333,0 C27.3448,3.20896612 30.1159688,6.5865509 32.7082643,10.3365573 C34.926338,8.5795749 37.0661473,6.94875333 38.8504226,5.30187882 C39.6625263,7.91033588 40.8829198,10.6950485 42.031789,13.6752074 L43.1257463,16.4686386 C44.9922182,15.7486441 45.9214956,15.3776744 45.9135785,15.3557295 C46.8511461,14.967843 47.7490554,14.5752755 48.5918987,14.164442 C49.159846,22.2587425 53.1205653,32.9872281 47.4181874,42.8640363 C43.6166021,49.4485752 36.502129,52.8823152 26.074768,53.1652565 C26.0303803,53.0801419 25.9863487,52.9951488 25.9426731,52.9102771 C25.7417195,53.0517503 25.5386037,53.1927708 25.3333333,53.3333333 C25.1262158,53.1963957 24.9212918,53.0588883 24.7185615,52.9208111 C24.6766725,53.0021845 24.6344492,53.0836647 24.5918987,53.1652565 C14.1645377,52.8823152 7.05006457,49.4485752 3.24847929,42.8640363 C-2.45389862,32.9872281 1.50682062,22.2587425 2.07476798,14.164442 C2.91761127,14.5752755 3.81552054,14.967843 4.75308821,15.3557295 C4.74517106,15.3776744 5.67444845,15.7486441 7.54092037,16.4686386 L8.63487767,13.6752074 C9.78374686,10.6950485 11.0041403,7.91033588 11.8162441,5.30187882 C13.5883719,6.93754133 15.7112093,8.55736874 17.913111,10.30069 Z M11.2222222,30.1298701 C11.2222222,23.9676913 12.951681,18.5069979 16.2654753,12.8389024 C15.3634615,12.1206721 14.2252891,11.2118974 13.1729213,10.3617794 C12.7174962,11.503223 11.6685888,14.0849961 11.7269603,13.9400404 C11.1684014,15.3271266 10.7479674,16.4147061 10.3642956,17.4828142 L9.3208939,20.3875521 L6.44696307,19.2620697 C5.74307459,18.9864144 5.13038285,18.744556 4.5842764,18.5256394 C4.46923644,19.292434 4.32411708,20.2243319 4.13742498,21.4127799 C3.13207953,27.8126264 2.90719427,31.2422373 3.56421453,35.0072244 C3.96080239,37.2798303 4.70102002,39.3799107 5.84655551,41.3640363 C8.46865157,45.9056399 13.0187222,48.71293 19.7198911,49.7406197 C14.0977542,44.023337 11.2222222,37.4560243 11.2222222,30.1298701 Z M39.4444444,30.1298701 C39.4444444,37.4560243 36.5689124,44.023337 30.9467756,49.7406197 C37.6479445,48.71293 42.1980151,45.9056399 44.8201112,41.3640363 C45.9656466,39.3799107 46.7058643,37.2798303 47.1024521,35.0072244 C47.7594724,31.2422373 47.5345871,27.8126264 46.5292417,21.4127799 C46.3425496,20.2243319 46.1974302,19.292434 46.0823903,18.5256394 C45.5362838,18.744556 44.9235921,18.9864144 44.2197036,19.2620697 L41.3457728,20.3875521 L40.3023711,17.4828142 C39.9186993,16.4147061 39.4982653,15.3271266 38.9397064,13.9400404 C38.9980779,14.0849961 37.9491705,11.503223 37.4937453,10.3617794 C36.4413776,11.2118974 35.3032052,12.1206721 34.4011914,12.8389024 C37.7149857,18.5069979 39.4444444,23.9676913 39.4444444,30.1298701 Z" id="Combined-Shape"></path>
            </g>
        </g>
    </g>
</svg>