<?xml version="1.0" encoding="UTF-8"?>
<svg width="60px" height="60px" viewBox="0 0 60 60" version="1.1" xmlns="http://www.w3.org/2000/svg" xmlns:xlink="http://www.w3.org/1999/xlink">
    <!-- Generator: Sketch 46.2 (44496) - http://www.bohemiancoding.com/sketch -->
    <title>ic_plane</title>
    <desc>Created with Sketch.</desc>
    <defs>
        <rect id="path-1" x="0" y="0" width="64" height="64"></rect>
    </defs>
    <g id="promo" stroke="none" stroke-width="1" fill="none" fill-rule="evenodd">
        <g id="ic_plane" transform="translate(-1.000000, -3.000000)">
            <mask id="mask-2" fill="white">
                <use xlink:href="#path-1"></use>
            </mask>
            <g id="Rectangle-2"></g>
            <g id="Group-17" mask="url(#mask-2)" fill-rule="nonzero" fill="#F5A21D">
                <g transform="translate(34.000000, 30.000000) rotate(-315.000000) translate(-34.000000, -30.000000) translate(0.000000, -6.000000)" id="Combined-Shape">
                    <path d="M47.1298529,26.4517488 L49.0801591,24.1722081 C49.4835176,23.8763186 50.0181569,23.7443143 50.5836274,23.7443143 C52.5473065,23.7443143 54.1391829,25.3361908 54.1391829,27.2998699 L54.1391829,32.4487203 L65.6339642,42.2833086 L67.1535484,47.1464354 C67.3393432,47.7410346 67.3354308,48.3787249 67.1423543,48.9709996 C66.6288311,50.5462647 64.9355337,51.4069765 63.3602687,50.8934534 L43.966744,44.5713277 L43.1398068,44.3017531 L40.9970188,43.6032223 L40.9227872,45.855771 L40.89414,46.7250665 L40.6435223,54.3300318 L48.1153493,60.9172165 C48.8129474,61.5322209 49.1858809,62.4359766 49.1249978,63.3639673 C49.016529,65.0172672 47.5883333,66.2696002 45.9350334,66.1611314 L43.2610444,65.9856977 L40.2658915,65.7891933 L40.2015454,66.7699675 C39.810223,69.5900647 37.3910947,71.7443143 34.4824198,71.7443143 C31.5690366,71.7443143 29.1467862,69.583085 28.7614098,66.7562677 L28.6999426,65.8193753 L25.7015703,65.9181851 L23.4908387,66.1611314 C21.8375389,66.2696002 20.4093431,65.0172672 20.3008743,63.3639673 C20.2399912,62.4359766 20.6129248,61.5322209 21.3105228,60.9172165 L28.3343333,54.7250044 L28.0634031,46.5036604 L28.034756,45.6343648 L27.9605244,43.3818162 L25.8177364,44.080347 L24.9907992,44.3499216 L4.91809716,50.8934534 C3.3428321,51.4069765 1.64953471,50.5462647 1.13601157,48.9709996 C0.942935003,48.3787249 0.939022601,47.7410346 1.12481737,47.1464354 L2.64440159,42.2833086 L14.1391829,32.4487203 L14.1391829,27.2998699 C14.1391829,25.3361908 15.7310594,23.7443143 17.6947385,23.7443143 C18.260209,23.7443143 18.7948482,23.8763186 19.2695218,24.111193 L21.148513,26.4517488 L27.2311048,21.2476665 L26.913676,11.6153272 C26.7988086,8.1296876 28.1367891,4.752913 30.6078949,2.29191449 L30.9540234,1.94720172 C32.9049364,0.00426836184 36.0595231,0.00422532486 38.0104891,1.94710545 L38.3567331,2.29191449 C40.8279662,4.75290539 42.1660288,8.12975262 42.0511585,11.6154769 L41.7149104,21.8188872 L47.1298529,26.4517488 Z M5.25047042,44.0017986 L3.98828126,48.0411837 L30.8273707,39.2918666 L31.3792947,56.0399342 L23.2944386,63.1675672 L31.5962332,62.6229074 L31.7095441,66.0613121 C31.7588395,67.5571768 32.985743,68.7443143 34.4824198,68.7443143 C35.9790965,68.7443143 37.206,67.5571768 37.2552954,66.0613121 L37.3696009,62.5927255 L46.1314336,63.1675672 L37.5985609,55.6449615 L38.1301725,39.5132727 L64.2900846,48.0411837 L63.0278954,44.0017986 L51.1391829,33.8301746 L51.1391829,27.2998699 C51.1391829,26.993045 50.8904522,26.7443143 50.5836274,26.7443143 C50.326548,26.7443143 50.1033569,26.921766 50.0438619,27.1648766 L48.8847362,31.901338 L38.6690498,23.1611046 L39.0527862,11.5166671 C39.1402493,8.86260995 38.1214382,6.29145263 36.2398225,4.41763534 L35.8935784,4.07282629 C35.113192,3.29567425 33.8513573,3.29569146 33.0709921,4.0728648 L32.7248636,4.41757757 C30.8433389,6.29140649 29.8245871,8.86251648 29.9120484,11.5165174 L30.2769655,22.5898838 L19.3936296,31.901338 L18.2345039,27.1648766 C18.1750089,26.921766 17.9518178,26.7443143 17.6947385,26.7443143 C17.3879136,26.7443143 17.1391829,26.993045 17.1391829,27.2998699 L17.1391829,33.8301746 L5.25047042,44.0017986 Z"></path>
                </g>
            </g>
        </g>
    </g>
</svg>