<?xml version="1.0" encoding="UTF-8"?>
<svg width="62px" height="57px" viewBox="0 0 62 57" version="1.1" xmlns="http://www.w3.org/2000/svg" xmlns:xlink="http://www.w3.org/1999/xlink">
    <!-- Generator: Sketch 46.2 (44496) - http://www.bohemiancoding.com/sketch -->
    <title>ic_ship</title>
    <desc>Created with Sketch.</desc>
    <defs>
        <rect id="path-1" x="0" y="0" width="64" height="64"></rect>
    </defs>
    <g id="promo" stroke="none" stroke-width="1" fill="none" fill-rule="evenodd">
        <g id="ic_ship" transform="translate(-1.000000, -5.000000)">
            <mask id="mask-2" fill="white">
                <use xlink:href="#path-1"></use>
            </mask>
            <g id="Rectangle-2"></g>
            <path d="M10.0031776,58.7864468 C8.44336396,60.6622124 5.67409408,61.7901727 2.66666667,61.7901727 C1.83823954,61.7901727 1.16666667,61.1185998 1.16666667,60.2901727 C1.16666667,59.4617456 1.83823954,58.7901727 2.66666667,58.7901727 C4.71007498,58.7901727 6.52816915,58.0959445 7.52380995,57.0611833 C7.54622956,56.9673922 7.57137452,56.8742632 7.599197,56.7818484 C6.2795925,55.6255352 5.16865565,54.2427412 4.31998884,52.6878908 L2.52298904,49.3955905 C1.19999474,46.9717203 2.09243106,43.9342864 4.51630135,42.6112921 C5.25104909,42.2102528 6.07472414,42.0000975 6.91179444,42.0000975 L58.8363009,42.0000975 C61.0454399,42.0000975 62.8363009,43.7909585 62.8363009,46.0000975 C62.8363009,47.393986 62.1106825,48.6873545 60.9210868,49.4138443 L50.6087697,55.7116087 C50.8508381,56.1406046 51.0308555,56.5926332 51.1428567,57.0611833 C52.1384975,58.0959445 53.9565917,58.7901727 56,58.7901727 C57.2582609,58.7901727 58.4476692,58.5289415 59.4271469,58.0589157 C60.1740298,57.7005062 61.0700464,58.015426 61.428456,58.7623089 C61.7868655,59.5091919 61.4719457,60.4052084 60.7250628,60.763618 C59.3333534,61.4314629 57.7001168,61.7901727 56,61.7901727 C52.9318971,61.7901727 50.1116584,60.6162396 48.5705652,58.6720048 C48.4039036,58.4617454 48.2966875,58.2106331 48.2600916,57.9448402 C48.2293507,57.7215717 48.1578545,57.4981284 48.0451051,57.2772467 L47.8568575,57.3922101 L46.2116895,56.0590741 C45.4260586,55.4224505 44.1260577,55 42.6666667,55 C41.1146561,55 39.7495628,55.478298 38.9960296,56.1670546 L38.8618505,56.2896991 L38.7637539,56.4134573 C38.6333112,56.5780231 38.573691,56.7110239 38.5592227,56.8161055 L38.447423,57.6280968 L37.9382755,58.2704345 C36.0914695,60.600355 32.8326724,61.9568394 29.3333333,61.9568394 C25.8339942,61.9568394 22.5751972,60.600355 20.7283912,58.2704345 L20.2192437,57.6280968 L20.107444,56.8161055 C20.0929757,56.7110239 20.0333555,56.5780231 19.9029128,56.4134573 L19.8053401,56.2903602 L19.6720484,56.1683456 C18.9189818,55.478992 17.5531263,55 16,55 C15.1633948,55 13.4889979,55.5133586 12.6388529,56.1264309 C12.4757045,56.2440835 12.3177237,56.3994617 12.1734364,56.5830251 L10.2682839,59.0067759 L10.0031776,58.7864468 Z M48.4932779,53.4883472 L59.3574974,46.8535342 C59.6548963,46.6719117 59.8363009,46.3485696 59.8363009,46.0000975 C59.8363009,45.4478127 59.3885856,45.0000975 58.8363009,45.0000975 L6.91179444,45.0000975 C6.57696632,45.0000975 6.2474963,45.0841596 5.9535972,45.2445753 C4.98404909,45.773773 4.62707456,46.9887466 5.15627228,47.9582947 L6.95327208,51.2505949 C7.50164528,52.2552746 8.18165244,53.160968 8.96518303,53.9509932 C9.22509477,53.7870576 9.53842939,53.7091288 9.86855626,53.7044243 C11.4695495,52.5116605 13.6663848,51.8333333 16,51.8333333 C18.3765671,51.8333333 20.6112429,52.5368659 22.2191618,53.7707472 C22.9756846,53.9038215 23.4429555,54.5444785 23.647091,55.2435896 C24.0411069,55.8071916 24.322601,56.418653 24.47619,57.0611833 C25.4718308,58.0959445 27.289925,58.7901727 29.3333333,58.7901727 C31.3767416,58.7901727 33.1948358,58.0959445 34.1904766,57.0611833 C34.3481924,56.4013889 34.640779,55.7743554 35.0515794,55.1982635 C35.1209931,55.0104732 35.2135119,54.8228264 35.3223323,54.6571054 C35.5815321,54.2623737 35.944438,53.9479964 36.3860437,53.8184107 C37.9982567,52.5549707 40.2597051,51.8333333 42.6666667,51.8333333 C44.8554951,51.8333333 46.9239645,52.430104 48.4932779,53.4883472 Z M27.9565816,8.6310928 C27.9565816,8.18467428 28.0562109,7.74388285 28.2482048,7.3408595 C28.960781,5.84505779 30.751025,5.21012804 32.2468216,5.92271485 C38.7292062,9.0108199 44.1277023,13.3631338 48.44231,18.9796565 C52.8879564,24.7667583 55.0744604,30.4531488 55.0018221,36.0388278 C54.9804754,37.6803279 53.6437166,38.999816 52.0020778,38.999818 L30.9565816,38.999818 C29.2997273,38.999818 27.9565816,37.6566723 27.9565816,35.999818 L27.9565816,8.6310928 Z M24,16.4075959 L24,36 C24,37.6568542 22.6568542,39 21,39 L9.79551293,39 C8.13865801,39.0000012 6.79551172,37.6568549 6.79551172,36 C6.84286536,31.7643389 8.24429847,27.4422292 11,23 C13.2381298,19.4355229 15.9700289,16.4391324 19.1956972,14.0108285 C20.5193952,13.0143391 22.4002786,13.279595 23.3967673,14.6032935 C23.7882719,15.1233536 24,15.7566441 24,16.4075959 Z M13.5493175,24.5814488 C11.0676162,28.5819858 9.8361448,32.3799226 9.79551172,36 L21,36 L21,16.4075959 C18.0697821,18.6134823 15.5863001,21.337405 13.5493175,24.5814488 Z M46.0632524,20.8072464 C42.0380552,15.5674626 37.0131477,11.5163391 30.9565816,8.6310928 L30.9565816,35.999818 L52.0020758,35.999818 C52.0652376,31.1428518 50.1232207,26.0922935 46.0632524,20.8072464 Z" id="Combined-Shape" fill="#F5A21D" fill-rule="nonzero" mask="url(#mask-2)"></path>
        </g>
    </g>
</svg>