<?xml version="1.0" encoding="UTF-8"?>
<svg width="31px" height="32px" viewBox="0 0 31 32" version="1.1" xmlns="http://www.w3.org/2000/svg" xmlns:xlink="http://www.w3.org/1999/xlink">
    <!-- Generator: Sketch 46.2 (44496) - http://www.bohemiancoding.com/sketch -->
    <title>Warner_Bros_logo</title>
    <desc>Created with Sketch.</desc>
    <defs></defs>
    <g id="promo" stroke="none" stroke-width="1" fill="none" fill-rule="evenodd" opacity="0.400000006">
        <g id="Warner_Bros_logo" fill-rule="nonzero" fill="#FFFFFF">
            <path d="M15.260459,0 L15.2604582,0 C16.0166934,0.162878902 22.5861332,1.02410894 23.4006396,1.43283547 C23.5893732,1.81143188 23.9824936,2.99263545 24.1073007,3.17953079 C24.635665,3.29306623 26.7728235,3.70179277 26.9067632,3.77995839 C26.9824283,4.00702754 27.4731775,4.97644358 27.5862434,5.08997815 C28.0380731,5.20351359 30.1489203,5.59641042 30.4128851,5.7859269 C30.5642204,6.69420781 31.1237861,15.7822643 27.3552207,21.7245199 C23.5862205,27.6663406 17.007865,31.6214036 15.2740469,32 L15.260459,32 C13.52664,31.6214036 6.93469606,27.6663398 3.16569605,21.7245199 C-0.603303754,15.7827008 -0.0288432743,6.69420781 0.121621018,5.7859269 C0.385150932,5.59641042 2.49556471,5.20351359 2.94826216,5.08997815 C3.06132789,4.97644358 3.55251116,4.00702754 3.6277433,3.77995839 C3.76211767,3.70179277 5.89971048,3.2935028 6.42720523,3.17953079 C6.55201232,2.99263545 6.94556789,1.81143188 7.13386569,1.43283547 C7.95098227,1.02279923 14.5146607,0.159822923 15.260459,0 Z M15.260459,2.31983 C14.6229434,2.45607132 9.01412551,3.2109715 8.31616263,3.56161975 C8.15526152,3.88519557 7.8111719,4.88921722 7.70462968,5.04904014 C7.25367162,5.14598252 5.42766144,5.4871326 5.31285622,5.55394398 C5.24849581,5.74782702 4.83906778,6.58962592 4.74209223,6.6865683 C4.35549459,6.78350895 2.54883608,7.11134153 2.32313963,7.2733473 C2.19441873,8.04975344 1.71128056,15.8135952 4.93234689,20.8921111 C8.15384816,25.970627 13.7784297,29.3570307 15.2604608,29.68017 L15.2740486,29.68017 C16.7560788,29.3570316 22.3806591,25.9710627 25.6021602,20.8921111 C28.823663,15.8135952 28.3405235,8.04975344 28.2113671,7.2733473 C27.9861056,7.1117781 26.1790123,6.78350895 25.7924151,6.6865683 C25.6954405,6.58962592 25.2860118,5.74782702 25.2216523,5.55394398 C25.1068465,5.4871326 23.2672466,5.14598252 22.816289,5.04904014 C22.710181,4.88921722 22.3788116,3.88519557 22.2183445,3.56161975 C21.522122,3.2122812 15.9066726,2.45869246 15.260459,2.31983 Z M16.1759886,4.70019371 C16.2458356,4.69325545 16.3314593,4.6971586 16.4449693,4.72729937 C16.8990093,4.84786673 20.7996604,5.50588595 24.2185163,8.15617862 C25.8719953,9.43730501 26.5368084,11.7832545 22.8063669,14.2414215 C27.6781487,17.2039728 19.2026681,25.4757828 16.4853154,26.9811289 C16.2718526,27.0990922 15.9005504,27.4597073 15.853211,27.2250807 C15.9113113,19.8085121 15.890869,12.1498334 15.9339058,4.93059265 C15.9351958,4.86879227 15.966445,4.72101106 16.1759886,4.70019371 Z M18.4488761,7.66827509 L18.4488761,7.66827509 C18.4101403,9.42212602 18.4120777,13.6621178 18.4219781,14.0381283 C18.8717146,13.9275368 21.5643207,11.9787415 21.9994239,11.6799276 C22.8007726,11.1317408 23.2660004,10.2247823 21.891832,9.28106842 C20.6932536,8.45791944 18.5018124,7.639217 18.4488761,7.66827509 Z M20.4527846,15.9219791 L20.4527846,15.92198 C19.5521357,15.8940466 18.437794,16.5895398 18.341285,16.6402816 C18.2930901,17.7626764 18.3151402,21.7747634 18.3009372,22.6035483 C18.3151402,22.5935732 18.3227768,22.6223041 18.341285,22.6171011 C18.4940659,22.4722477 19.8567237,21.0220899 20.5065806,19.8658667 C22.2517274,17.3166239 21.4321976,16.4263632 21.2462786,16.2472478 C21.0381937,16.0280166 20.7529992,15.9312896 20.4527846,15.9219791 Z M7.01382779,7.31448526 C6.77420083,10.5393798 7.54332621,15.0568312 8.34809494,16.5180037 C8.41165188,16.4217771 8.8114598,15.822744 8.9501683,15.6021162 C8.54391932,13.4751603 8.15355907,7.13806938 8.43956557,6.56027549 C8.66201504,6.33531424 10.2131489,5.70723988 10.8491477,5.57893858 C10.616822,8.72581141 11.0179173,16.3528575 12.1932923,19.2431252 C12.3521846,17.8630096 12.094092,5.72717821 12.1215754,5.08003307 C12.4535324,4.90621813 14.1313505,4.68558865 14.6428123,4.69772757 C14.5156984,5.41899339 14.631647,23.1177659 14.678885,27.2065324 C14.6836085,27.6243811 13.5030807,26.6101002 12.7343858,25.536436 C11.0003103,23.116465 9.76739081,19.1122221 9.57671998,18.470278 C9.43843997,18.6297882 8.88661135,19.4043696 8.50398135,19.9266811 C7.9517228,20.7186008 7.92509763,20.7840519 7.45056732,19.9570233 C7.20321036,19.5725502 6.97474892,19.1477653 6.76432373,18.6948068 C5.10024742,15.1131812 4.64847759,10.5242091 4.70129842,8.82333807 C4.89239893,8.63088484 6.7909489,7.41071273 7.01382779,7.31448526 Z" id="Combined-Shape"></path>
        </g>
    </g>
</svg>