<svg width="256" height="512" xmlns="http://www.w3.org/2000/svg" xmlns:svg="http://www.w3.org/2000/svg">
  <metadata id="metadata21">image/svg+xmlic_social_fb</metadata>
  <!-- Generator: Sketch 42 (36781) - http://www.bohemiancoding.com/sketch -->
  <title>ic_social_fb</title>
  <desc>Created with Sketch.</desc>

  <g>
    <title>Layer 1</title>
    <g fill="none" fill-rule="evenodd" id="Watch-/-Film-Description" transform="matrix(25.6,0,0,25.6,0,25.6) ">
      <g id="xtra">
        <g id="label" transform="matrix(-1,0,0,-1,155,35) ">
          <g id="icon" transform="matrix(-1,0,0,-1,132,22) ">
            <g id="ic_social_fb">
              <g id="g15">
                <path fill="#000000" d="m-13,-12.86298l0,3.01442l-1.81713,0c-0.66358,0 -1.11111,0.13702 -1.34259,0.41106c-0.23148,0.27404 -0.34722,0.68509 -0.34722,1.23317l0,2.15806l3.3912,0l-0.45139,3.3798l-2.93981,0l0,8.66647l-3.54167,0l0,-8.66647l-2.95139,0l0,-3.3798l2.95139,0l0,-2.48919c0,-1.41587 0.40123,-2.51392 1.2037,-3.29417c0.80248,-0.78025 1.87114,-1.17037 3.20602,-1.17037c1.13427,0 2.01389,0.04567 2.63889,0.13702z" id=""/>
              </g>
            </g>
          </g>
        </g>
      </g>
    </g>
  </g>
</svg>
