<svg xmlns="http://www.w3.org/2000/svg" width="307.237" height="512" viewBox="0 0 307.23718 512">
  <path d="M153.63 259.15c-35.763 0-66.28-12.673-91.57-38.017-25.294-25.344-37.94-55.808-37.94-91.418 0-35.814 12.646-66.38 37.94-91.725C87.35 12.646 117.866 0 153.63 0c35.763 0 66.278 12.672 91.57 37.99 25.294 25.344 37.94 55.91 37.94 91.725 0 35.61-12.646 66.1-37.94 91.418-25.292 25.344-55.807 38.016-91.57 38.016zm0-193.435a61.184 61.184 0 0 0-44.928 18.714 61.747 61.747 0 0 0-18.688 45.284c0 17.51 6.22 32.512 18.688 45.005a61.184 61.184 0 0 0 44.928 18.687 61.184 61.184 0 0 0 44.928-18.688c12.467-12.494 18.688-27.495 18.688-45.006 0-17.715-6.22-32.82-18.688-45.286a61.184 61.184 0 0 0-44.928-18.715zm149.197 209.152c2.457 5.12 3.89 9.856 4.275 14.13.384 4.277-.05 8.142-1.28 11.573a32.18 32.18 0 0 1-7.578 11.008c-3.79 3.89-7.833 7.424-12.11 10.572a354.048 354.048 0 0 1-17.56 11.853c-21.863 13.9-51.815 22.86-89.856 26.855l20.838 20.582 76.16 76.288c5.71 5.888 8.55 12.928 8.55 21.12s-2.84 15.155-8.55 20.864l-3.43 3.712c-5.888 5.71-12.928 8.576-21.095 8.576-8.19 0-15.204-2.867-21.12-8.576a18135.296 18135.296 0 0 0-76.16-76.544l-76.16 76.544C71.865 509.134 64.825 512 56.63 512c-8.165 0-15.103-2.867-20.81-8.576l-3.432-3.712a27.955 27.955 0 0 1-8.832-20.864c0-8.192 2.944-15.232 8.832-21.146l96.717-96.844c-38.605-3.994-68.762-12.954-90.42-26.88a354.048 354.048 0 0 1-17.56-11.828 97.434 97.434 0 0 1-12.11-10.572 32.18 32.18 0 0 1-7.577-11.008 26.83 26.83 0 0 1-1.28-11.572c.384-4.275 1.792-8.985 4.275-14.13 1.92-3.84 4.582-7.17 7.987-10.01 3.43-2.868 7.424-4.94 11.98-6.298 4.583-1.33 9.908-1.126 15.975.59 6.093 1.714 12.288 5.042 18.56 9.983.948.768 2.356 1.817 4.276 3.15 1.896 1.33 5.99 3.66 12.264 7.013 6.272 3.328 12.826 6.22 19.686 8.704 6.835 2.483 15.59 4.762 26.24 6.86 10.65 2.1 21.4 3.15 32.23 3.15 17.305 0 33.843-2.432 49.638-7.296 15.77-4.864 27.187-9.677 34.227-14.44l10.83-7.14c6.297-4.942 12.466-8.27 18.56-9.985 6.066-1.717 11.39-1.92 15.974-.59 4.554 1.356 8.55 3.43 11.98 6.297 3.403 2.867 6.066 6.195 7.986 9.984z" fill-rule="evenodd"/>
</svg>