<svg xmlns="http://www.w3.org/2000/svg" width="20" height="20" viewBox="0 0 20 20">
    <g fill="none" fill-rule="evenodd">
        <path d="M0 0h20v20H0z"/>
        <path fill="#FFF" d="M19.972 6.867c.16.467-.361 1.54-1.562 3.22-.167.233-.392.543-.677.93-.278.372-.468.635-.573.788-.104.154-.21.334-.317.543-.108.208-.15.36-.125.46.024.098.07.224.135.377.066.154.179.31.339.471.16.16.357.354.593.58.028.015.045.03.052.044.98.957 1.642 1.763 1.99 2.42.02.037.043.083.067.137.024.055.048.152.073.29a.888.888 0 0 1-.006.373c-.027.11-.114.21-.26.301-.146.091-.35.137-.614.137l-2.666.044c-.167.036-.36.018-.583-.055a2.47 2.47 0 0 1-.541-.24l-.209-.132a4.978 4.978 0 0 1-.729-.701 19.252 19.252 0 0 1-.713-.849 3.53 3.53 0 0 0-.635-.635c-.226-.172-.422-.228-.588-.17a.664.664 0 0 0-.084.039 1.39 1.39 0 0 0-.4.482 2.327 2.327 0 0 0-.178.569 3.792 3.792 0 0 0-.067.849c0 .109-.012.21-.037.3a.76.76 0 0 1-.078.203l-.042.055c-.124.139-.308.219-.551.24H9.788c-.493.03-1-.03-1.52-.18a5.652 5.652 0 0 1-1.37-.58c-.392-.237-.75-.478-1.072-.723a6.264 6.264 0 0 1-.734-.63l-.26-.262a7.09 7.09 0 0 1-.287-.329c-.121-.146-.37-.478-.744-.996a27.434 27.434 0 0 1-1.104-1.654 33.988 33.988 0 0 1-1.276-2.31C.931 9.315.48 8.322.062 7.292A.912.912 0 0 1 0 6.999c0-.08.01-.139.031-.175l.042-.066c.104-.139.302-.208.593-.208l2.854-.022c.083.015.163.039.239.071a.696.696 0 0 1 .167.093l.052.033a.72.72 0 0 1 .25.35c.138.366.298.744.479 1.134.18.39.322.688.427.893l.166.317c.201.438.396.818.583 1.14.188.32.356.57.505.75.15.178.294.319.432.42.14.103.257.154.354.154.098 0 .191-.018.282-.055a.183.183 0 0 0 .052-.054 1.842 1.842 0 0 0 .266-.756c.03-.212.063-.507.098-.887s.035-.836 0-1.369a5.34 5.34 0 0 0-.094-.8c-.048-.24-.097-.408-.145-.503l-.063-.131c-.173-.249-.468-.406-.885-.471-.09-.015-.073-.102.052-.263.111-.139.243-.248.396-.329.368-.19 1.197-.277 2.488-.262.57.007 1.038.054 1.406.142.14.036.255.086.35.148a.58.58 0 0 1 .213.263c.048.113.085.23.109.35.024.12.036.287.036.498 0 .212-.003.413-.01.603l-.026.772c-.01.324-.016.626-.016.903 0 .08-.003.234-.01.46a9.592 9.592 0 0 0-.005.526c.003.124.015.272.036.443.02.172.06.314.12.427a.716.716 0 0 0 .234.268c.056.015.115.03.177.044.063.015.153-.025.27-.12.119-.095.25-.221.397-.378.145-.157.326-.401.541-.734.215-.332.451-.724.708-1.177.417-.76.788-1.58 1.114-2.464a.761.761 0 0 1 .104-.191.476.476 0 0 1 .115-.115l.042-.033.052-.028a.796.796 0 0 1 .344-.038l2.998-.022c.27-.036.493-.027.667.027.173.055.28.115.322.181l.063.11z"/>
    </g>
</svg>
