<?xml version="1.0" encoding="utf-8"?>
<!-- Generator: Adobe Illustrator 21.0.0, SVG Export Plug-In . SVG Version: 6.00 Build 0)  -->
<svg version="1.1"
	 id="Layer_1" xmlns:cc="http://creativecommons.org/ns#" xmlns:dc="http://purl.org/dc/elements/1.1/" xmlns:inkscape="http://www.inkscape.org/namespaces/inkscape" xmlns:rdf="http://www.w3.org/1999/02/22-rdf-syntax-ns#" xmlns:sodipodi="http://sodipodi.sourceforge.net/DTD/sodipodi-0.dtd" xmlns:svg="http://www.w3.org/2000/svg"
	 xmlns="http://www.w3.org/2000/svg" xmlns:xlink="http://www.w3.org/1999/xlink" x="0px" y="0px" viewBox="0 0 244.5 512"
	 style="enable-background:new 0 0 244.5 512;" xml:space="preserve">
<g id="g5457">
	<path id="path9" d="M236.8,0h-77.6C83.1,0,18.4,58,18.4,170.6c0,67.6,31.4,117.4,87.2,142L1.4,501.1c-3.5,6.1,0,10.9,5.4,10.9h48.4
		c4.1,0,6.8-1.4,8.2-4.7l94.6-185h34v185c0,2,2,4.7,4.7,4.7H239c4.1,0,5.5-2,5.5-5.5V6.8C244.3,2,241.5,0,236.8,0L236.8,0z
		 M191.9,278.5h-28.5c-44.9,0-88.4-32.8-88.4-114.7c0-85.4,40.8-120.2,82.3-120.2h34.7V278.5z"/>
</g>
</svg>
